<svg xmlns="http://www.w3.org/2000/svg" width="2794.59" height="609" viewBox="0 0 2794.59 609"><defs><style>.a{fill:#45b02c;}.b{fill:#76797c;}.c{fill:#fefefe;}</style></defs><path class="a" d="M380,0c4.7,2.4,9.9,3.6,14.2,6.8,13.5,10,19,26.3,13.7,42.5-1.1,3.2-.6,5,2,7.1q60.75,48.3,121.4,96.8c2.5,2,4,2.3,6.8.6,19.5-11.7,44.2-4.6,53.7,15.1,9.9,20.6.4,44.2-21.3,52.2-3.1,1.1-3.8,2.6-3.8,5.7q.15,77.7,0,155.4c0,3.1.9,4.5,3.9,5.6,21.7,8.2,31.2,31.8,21.3,52.3-9.6,19.7-34.2,26.7-53.8,15-2.5-1.5-4-1.5-6.4.4Q471.1,504,410.3,552.2c-2.6,2.1-3.5,3.8-2.4,7.4,6.6,20.9-4.1,41-24.9,48-1,.3-2.5-.1-2.9,1.4h-15c-.4-.3-.7-.7-1.1-.8q-25.8-6.9-29.1-33.3c-.3-2.7-1.6-3.4-4.1-4q-75.6-17.1-151.1-34.6c-3.4-.8-5.4-.6-7.6,2.9-12.1,18.6-37,22.5-54.6,8.9a37.39,37.39,0,0,1-6.6-52.4c.7-.8,1.4-1.7,2.1-2.5,3.5-3.8,3.1-6.3,1.1-10.2Q80.35,414,47.5,345.1c-1.4-3-2.9-3.7-6-3.4-16.6,1.4-30.3-6.2-37.7-20.7a91.13,91.13,0,0,1-3.7-9.1v-15c.3-.4.8-.7.9-1.1A37.26,37.26,0,0,1,42.4,267c2.6.3,3.8-.5,4.9-2.8,4.6-9.9,9.5-19.8,14.2-29.6q26.55-55.2,53.2-110.3c1.4-2.8,1.9-4.7-.9-7.6-15.5-15.8-13.9-41.8,3.1-55.2,17.9-14.2,43-10.5,55.4,8.5,2,3.1,3.8,3.6,7.2,2.8q75.75-17.4,151.6-34.6c2.6-.6,3.9-1.4,4.1-4.4.3-6.6,2.9-12.5,6.6-18C347.3,7.3,355.8,3.1,365,0ZM286,238c6.8-.1,13.1-2.6,20.5-4-4.4-3.5-8.1-6.5-11.8-9.5-1.2-1-2.2-1.5-3,.5-1.7,4.4-4.6,8.3-5.7,13l-.7.5a.6.6,0,0,0,.4.1.86.86,0,0,0,.3-.6ZM167,484.9c3.7-.8,6-3.8,8.8-6,10.2-8,20.3-16.1,30.5-24.2,1.9-1.5,2.7-2.5.2-4.4-4.9-3.7-9.7-7.6-14.5-11.5-1.5-1.2-2.5-1.9-3.7.5-6.9,15.3-14.9,30.1-21.3,45.6l-.6.6.4.2ZM167,123l-.6-.4v.4l.7-.1c-.8.8-.2,1.6.1,2.2,7,14.7,14.1,29.3,21.1,44,1.2,2.6,2.4,2,4,.7,4.8-3.8,9.5-7.8,14.5-11.4,2.6-1.9,1.7-2.8-.2-4.3-13.3-10.4-26.4-20.7-39.6-31.1Zm363.3,96.2-41.8,33.2c-1,.8-2.2,1.5-1.4,3.2,4.4,9.1,8.8,18.3,13.7,28.3,1.8-3.6,3.1-6.3,4.3-8.9l26.2-54.8c.6-.5,1.1-1.1.4-1.9-.5.3-.9.6-1.4.9ZM179.4,108.5c-.4-.1-1.1-.3-1.2-.2-.3.6.3.6.6.7,13.7,12.1,28.4,22.9,42.6,34.4,1.4,1.1,2.5,1,3.9-.1,7.7-6.3,15.5-12.4,23.5-18.8-2.9-1.8-5.9-1.8-8.7-2.4C219.9,117.5,199.7,113.1,179.4,108.5Zm350.9,281c.4.3.9.6,1.4.9.7-.8.2-1.3-.4-1.9l-30.4-64c-4.8,9.9-8.9,18.6-13.1,27.2-.9,1.9-1.2,3.1.7,4.6q21,16.65,41.8,33.2ZM179.4,500.3l69.9-15.8c-8.7-7-16.7-13.2-24.5-19.6-1.5-1.2-2.3-.6-3.4.2l-42.7,34.4c-.4.2-1.2.1-1,.9A4.73,4.73,0,0,0,179.4,500.3ZM345.9,69.9,289,115.2c10.9,2.5,20.7,4.7,30.5,7,2.3.5,2.7-1.2,3.4-2.7,7.3-15.2,14.7-30.5,22-45.7.6-1.2,2-2.4.8-4l.7.3.1-.4ZM399.1,538a17.48,17.48,0,0,0,2.9-1.8l116.7-93c.7-.5,1.8-.8,1.5-2.4q-41.4,9.45-82.6,18.9a4.21,4.21,0,0,0-3.2,2.7c-12,25-23.9,50-35.9,75-.1.4-.4,1-.2,1.1C398.7,538.8,398.9,538.3,399.1,538Zm.1-467.3c-.2-.4-.5-.9-1-.5-.2.2.1.8.2,1.2,11.9,24.9,23.9,49.7,35.7,74.6,1.4,3,3.9,3.3,6.4,3.8,18.5,4.3,36.9,8.5,55.4,12.7,8.1,1.9,16.3,3.6,25.7,5.7-1.5-1.3-1.9-1.8-2.4-2.2q-36.75-29.25-73.4-58.5-23.25-18.45-46.6-36.8ZM64,271c1.2.5,1.8-.5,2.5-1.1,21-16.7,42-33.3,63-50,2.1-1.7,2.5-3.6,2.5-6q-.15-34.2,0-68.5V129.3c-1.1,1.9-1.6,2.5-1.9,3.2q-26.4,54.75-52.8,109.6c-4.5,9.5-9.7,18.8-13.3,28.9l-.6.6.4.1Zm.1,65.7-.9-.1.2.4.7-.5c-1.1,3.1,1.3,5.2,2.4,7.6q28.8,60.3,57.8,120.4c2.2,4.5,3.9,9.3,7.4,13.9,0-27.9-.1-55,.1-82.2a9.68,9.68,0,0,0-4.2-8.7c-21.2-16.8-42.3-33.9-63.5-50.8Zm299.3-32.4c0-6.7-.3-13.4.1-20,.2-3.8-1.3-6.1-4.1-8.3q-16.35-12.75-32.4-25.8a6.34,6.34,0,0,0-6.3-1.4q-21.15,4.95-42.3,9.6a6.1,6.1,0,0,0-4.6,3.9c-6,12.6-12,25.2-18.3,37.7a8.85,8.85,0,0,0,0,8.9q9.15,18.6,18,37.2a7.32,7.32,0,0,0,5.3,4.5c14,3,27.9,6.2,41.8,9.5a6.87,6.87,0,0,0,6.4-1.5c11.2-9,22.4-18,33.7-26.8a6.55,6.55,0,0,0,2.8-5.9C363.3,318.6,363.4,311.5,363.4,304.3ZM381,355.6c0,4.8.2,9.7-.1,14.5-.2,3,1.1,4,3.7,4.6l62.1,14.1c2.3.5,3.6.1,4.7-2.2,3.8-8.1,7.7-16.2,11.7-24.2,1-1.9.8-3.2-1-4.6q-25.5-20.1-50.7-40.3c-1.7-1.4-2.8-1.6-4.6,0-3.9,3.4-7.7,7-12.2,9.5-11.1,6.4-16.2,15.3-13.6,28.1v.5Zm0-102.8c0,4.7.2,9.3-.1,14-.2,3,1,4.9,3.3,6.6,7.2,5.6,14.5,11.2,21.5,17,2.5,2.1,4,2.3,6.6.2q24.6-20,49.5-39.6c1.9-1.5,2.4-2.6,1.3-4.9-4.1-8-8-16-11.7-24.2-1-2.2-2.2-2.5-4.2-2.1-21,4.8-42.1,9.6-63.1,14.3-2.4.5-3.1,1.7-3,4.1,0,4.9-.1,9.8-.1,14.6Zm-150-1.6c9.4-2.2,20-4.7,30.7-7.1,1.8-.4,2.1-2,2.8-3.2,4.2-8.7,8.3-17.4,12.6-26,1.2-2.4,1-3.7-1.1-5.4-16.8-13.3-33.5-26.7-50.3-40.2-1.8-1.4-2.9-1.4-4.7,0q-10.35,8.55-21,16.8c-1.6,1.3-2.4,2.1-1.3,4.4,9.5,19.5,18.9,39.2,28.3,58.7.5,1.2.8,2.8,4,2Zm47,145a3.55,3.55,0,0,0-.4-.9c-4.6-9.6-9.2-19.1-13.8-28.7-.8-1.8-2.4-2.2-4-2.6-9.4-2.1-18.8-4.1-28.2-6.4-2.5-.6-3.7-.3-4.9,2.2q-13.8,28.95-27.9,57.8c-1.1,2.3-.8,3.5,1.1,5q10.65,8.25,21,16.8c1.9,1.5,3,1.2,4.6-.2,16.7-13.4,33.5-26.7,50.3-40.1,1.1-.7,2.5-1.2,2.2-2.9ZM149.6,303.9c0,4.5.2,9-.1,13.5-.1,2.7,1,3.8,3.5,4.4q30.9,6.9,61.6,14c2.6.6,4.1.4,5.4-2.4,3.9-8.8,8.2-17.4,12.5-26a5.87,5.87,0,0,0,0-6c-4-8-8.1-16-11.6-24.2-1.9-4.4-4.2-4.8-8.4-3.8-18.7,4.4-37.5,8.8-56.3,12.8-4.9,1.1-7.8,2.6-6.8,8.4C150,297.5,149.6,300.8,149.6,303.9ZM363.4,423.6c0-10.7-.1-21.3.1-32,0-2.9-.9-4.1-3.7-4.7-9.6-2.1-19.1-4.3-28.7-6.6a4.69,4.69,0,0,0-4.5,1.2c-7.9,6.4-15.8,12.7-23.8,19-1.5,1.2-2,2.1-1,4.1,9.5,19.6,19,39.2,28.3,58.8,1,2.1,2,2.4,4.2,1.8,8.1-2,16.2-3.8,24.3-5.5,3.6-.7,5.1-2.1,5-6.2C363.2,443.6,363.4,433.6,363.4,423.6Zm0-237.6c0-10.5-.2-21,.1-31.5.1-3.4-1.2-4.7-4.2-5.3-8-1.7-15.9-3.4-23.8-5.3-3-.7-4.5-.5-6,2.7-9,19.1-18.2,38-27.5,57-1.3,2.6-.5,3.8,1.4,5.4,7.7,6,15.4,12.1,23,18.3a4.9,4.9,0,0,0,4.9,1.1q13.95-3.45,28.2-6.3c3-.6,4-2,3.9-5C363.3,206.6,363.4,196.3,363.4,186ZM181.6,518l.2.7,151.9,34.6c-.1-1.9-1.1-2.3-1.8-2.9q-30.6-24.45-61.1-49c-2.7-2.2-5.1-2.9-8.6-1.9-4.6,1.4-9.4,2.1-14.1,3.2C225.9,507.9,203.8,513,181.6,518Zm-.7-427.8c2.2.7,3.2,1.1,4.1,1.3,26.4,6.1,52.8,12.1,79.1,18.2,2.3.5,3.7-.3,5.4-1.6,16.4-13.1,32.7-26.2,49.2-39.2,5.1-4.1,10.2-8.1,15.3-12.2l-.6-1.2Zm368,136.4c-1-.3-1,.4-1.2.8l-36,74.4c-1.2,2.4-.5,4.1.5,6,5.5,11.4,10.9,22.7,16.4,34.1,6.5,13.5,13.1,27,19.6,40.5l.7-.2ZM381,217c19.6-4.4,38.9-8.8,58.1-13.1,3-.7,2.7-1.9,1.6-4.1-5.4-11-10.6-22.1-16-33.2-.6-1.3-1.2-2.6-3-3-12.6-2.8-25.3-5.7-37.8-8.7-2.1-.5-3,0-2.9,2.4V217Zm0,174.8c0,19.7.1,39-.1,58.3,0,3.9,1.2,4.3,4.6,3.5,11.3-2.7,22.7-5.2,34-7.8,1.8-.4,3.7-.5,4.8-2.9,5.4-11.6,11-23.1,16.7-34.6,1-2.1.4-2.8-1.7-3.3-19.3-4.3-38.6-8.7-58.3-13.2Zm42.2-87.4c15.9,12.6,31.4,24.9,46.8,37.3,2.5,2,3,.2,3.8-1.5,5.3-10.9,10.6-21.8,15.8-32.8a5.83,5.83,0,0,0,.3-5.6c-5.5-11.2-10.9-22.4-16.3-33.6-.8-1.7-1.4-2.9-3.5-1.1-15.5,12.4-31,24.7-46.9,37.3ZM272.6,479a1.27,1.27,0,0,0,.6-.1c12.6-2.8,25.2-5.7,37.9-8.5,2.8-.6,1.8-2.1,1-3.6l-24.3-50.7c-.8-1.7-1.5-2.7-3.5-1.1-14.7,11.9-29.6,23.7-44.4,35.4-2.1,1.6-1.9,2.5,0,4,9.8,7.7,19.5,15.5,29.3,23.2C270.2,478.5,271.2,479.4,272.6,479Zm.1-349.4c-1.3-.5-2.3.4-3.4,1.2-9.9,7.9-19.7,15.8-29.6,23.6-1.7,1.3-2,2.1-.1,3.7Q262,175.8,284,193.6c1.7,1.4,2.6,1.5,3.6-.7q12.3-25.65,24.6-51.1c1-2,.7-3.1-1.5-3.6ZM149.6,361.1c0,5.8.1,11.7-.1,17.5a6.92,6.92,0,0,0,3.1,6.3c8.9,6.9,17.9,13.8,26.5,21.2,4.1,3.5,5.1,1.9,6.9-1.9,6.4-13.7,13-27.3,19.6-40.8,5-10.4,5.1-10.3-5.9-12.9-.2,0-.3-.1-.5-.2-14.9-3.4-29.8-6.8-44.6-10.3-4-1-5.3.1-5,4.2C149.7,349.8,149.6,355.5,149.6,361.1Zm0-114.8c0,7.5.1,13.6,0,19.8-.1,2.6.7,3.5,3.5,2.9,18.1-4.2,36.2-8.2,54.4-12.3,2.1-.5,3.1-1.1,1.8-3.6-8.3-17-16.4-34.1-24.5-51.1-1-2.2-2-2.1-3.6-.7-4.9,4-9.9,7.9-14.8,11.9-5.4,4.4-12.6,7.8-15.8,13.5-3.4,5.7-.7,13.8-1,19.6Zm.8-115.3-.7.2v72.4c8.5-6.8,16.4-13.1,24.3-19.4,1.5-1.2.8-2.2.2-3.5-7.8-16.6-15.8-33.2-23.8-49.7Zm-.7,346.6c1,0,1.1-.7,1.3-1.3,6.8-14.2,13.7-28.4,20.5-42.6,3.9-8.1,3.9-8.1-3.1-13.7-6-4.8-12.1-9.6-18.8-14.8v72.4ZM131.8,368.2c0-10.7-.2-20.2.1-29.6.1-3.1-1.2-4-3.8-4.6-5-1-10-2.3-15-3.4L75,321.9l-.3.6ZM413.5,143.5c-10.9-22.6-21.3-44.2-31.8-65.8-.8,18.8-.8,37.2-.8,55.6,0,1.6.1,3,2,3.4,9.9,2.2,19.7,4.4,30.6,6.8ZM381,530.8l.8.2c10.4-21.6,20.8-43.2,31.6-65.8-10.9,2.4-20.5,4.6-30.2,6.7a2.51,2.51,0,0,0-2.3,2.5v.2C381,493.4,381,512.1,381,530.8ZM132,240.3,75.2,285.7a6.47,6.47,0,0,0,2,.4q26.25-5.85,52.4-11.8c1.7-.4,2.4-1.1,2.4-3C131.9,261.4,132,251.5,132,240.3ZM345.8,539l.7-.8c-7.1-14.7-14.3-29.5-21.4-44.2-3.8-7.8-3.8-7.8-12.3-5.9-7.6,1.7-15.2,3.6-23.7,5.6ZM516.6,423.6c-.6-.6-.7-.8-.8-.8L462,410.3c-1.2-.3-2.3-.4-2.9,1-4.4,9.2-8.8,18.4-13.7,28.6ZM516.4,186a2.2,2.2,0,0,0-.1-.8l-71-16.2c4.9,10,9.3,18.9,13.5,27.9,1.2,2.6,2.7,1.6,4.5,1.3,9.7-2.2,19.4-4.3,29.1-6.5C500.4,189.9,508.4,187.9,516.4,186ZM362.6,531l.9-.2V479.1c0-2.3-1.2-2.4-2.9-2-6,1.4-12,2.9-18,4.2-2.8.6-3.4,1.4-2,4.2,4.6,9.2,9,18.5,13.4,27.8,2.9,5.9,5.7,11.7,8.6,17.7Zm.9-452.7-1-.3c-7.4,15.3-14.7,30.7-22.1,46-1.3,2.6,0,3.1,2,3.5,5.8,1.2,11.7,2.3,17.4,3.9,3.2.9,3.7-.1,3.6-2.9C363.5,111.8,363.5,95,363.5,78.3ZM131.7,316.8V291.9L78.7,304l.1.7Zm387.6,88.5.6-1.1c-13.2-10.6-26.5-21.1-39.7-31.7-1.6-1.2-2.3-.6-3,.8-2.9,6-5.7,12-8.6,18-.8,1.6-.8,2.3,1.1,2.7Q494.6,399.55,519.3,405.3Zm-51.6-190c3.2,6.8,6.3,12.8,9,19,1.4,3.1,2.5,3,4.9,1,9.3-7.6,18.7-15,28-22.5l10.3-8.3-.5-1ZM346.2,243c6.1,4.9,11.2,8.9,17.3,13.7V241c0-1.5-.8-1.8-2.3-1.5-4.7,1.2-9.4,2.2-15,3.5Zm0,122.8c5.7,1.3,10.4,2.2,15,3.4,2,.5,2.3-.4,2.3-1.9V352.1Zm-39.7,9-21.3-4.9c2.2,4.8,4.2,8.9,6.2,13.1.8,1.9,1.7,2.6,3.6,1,3.4-2.9,7.1-5.7,11.5-9.2Zm88.4-70.5-13.7-10.8v21.7ZM243.7,324.7c-2.3,4.8-4.4,9-6.2,13.2-.4.9-2,2.4.4,3,4.7,1.2,9.5,2.6,15.1,3Zm9.5-60.5L236,268.1l7.7,15.8C247,277.2,249.8,271.3,253.2,264.2Z" transform="translate(-0.1)"/><path class="b" d="M2794.69,442c-10.32,13.26-19.49,13.1-31,.16-30.63-34.39-61.42-68.62-92-103-4.09-4.58-6.22-5.4-10.81-.16-31.6,35.37-63.38,70.42-95.31,105.63-7.53,8.35-16.21,9.49-22.6,3.27-5.89-5.73-5.08-16.05,1.64-23.42q48.39-52.56,97.11-105.13c3.93-4.1,3.6-6.39-.33-10.48-31.28-33.74-62.39-67.8-93.51-101.7-5.24-5.57-7.69-11.79-5.24-19.33,1.81-5.73,6.39-7.86,11.79-8.68,5.9-1,10.65,1.64,14.42,5.9,30.95,34.72,62.06,69.6,92.69,104.64,4.25,4.92,6.22,4.59,10.15,0q45.2-51.09,90.56-102a39.37,39.37,0,0,1,5.73-5.9,14.88,14.88,0,0,1,18.84,1.31c5.24,5.41,5.07,15.23-.66,21.62-11.79,13.1-23.91,26.2-35.86,39.3-19.82,21.78-39.63,43.57-59.61,65-3.44,3.6-3.28,5.73,0,9.17q47.16,51.09,94.16,102.19c3.44,3.77,6.39,7.86,9.66,11.79Z" transform="translate(-0.1)"/><path class="b" d="M1258.74,222.57c37.17-64.85,153.12-64.52,179.65,9.83,5.57-8.36,10.32-16.87,17-24.08,25.06-27,57-34.71,92.2-32.26,26.53,1.8,50.11,10.81,67,32.43,13.92,17.68,20.47,38.65,22.11,60.59,3.76,55.84,1,111.69,1.63,167.7.17,9.49-5.56,14.9-13.92,14.9-9.49.16-15.06-5.57-15.06-16.38-.17-27.51.16-55-.17-82.7-.32-26.2,1.81-52.4-1.31-78.44-2.29-19.65-8.18-37.83-22.59-52.24-26-25.72-77.79-25.39-104.81,0-22.6,21.29-30.79,48.63-31.45,78.28-1,44.7-.32,89.41-.49,134.12,0,11.95-4.42,17.19-13.75,17.19-10.16,0-15.07-5.56-15.07-17.19V298.39c0-18.34-2-36.35-9-53.55-11.46-27.84-33.24-40.94-62.39-42.08-45.37-1.64-76.48,24.72-86,71.72a170.71,170.71,0,0,0-3.44,34.07c.17,41.92,0,84,0,125.93,0,7.54-1.8,13.43-9.82,15.72-9,2.62-16.71-1.47-18.51-10.64a46,46,0,0,1-.49-8.19V199a68.06,68.06,0,0,1,.49-8.19c1.47-8.52,6.55-12.77,14.58-12.28s13.1,5.07,13.59,13.43c.49,7.86.16,15.88.16,23.74C1258.74,218.31,1258.74,220.44,1258.74,222.57Z" transform="translate(-0.1)"/><path class="b" d="M1769.68,233.54c7.86-9.82,13.43-18.67,21.46-25.54,30.46-26.21,66.16-35.21,105.63-31.94,27.51,2.29,52.89,10.48,74.34,28.17,28.5,23.58,43.57,54.21,47.33,90.89a174.36,174.36,0,0,1-7.69,74c-14.09,42.91-44.71,68-86.31,80.74-29.15,8.84-59,7.2-87.94-1.15-25.06-7.21-46.35-24.24-66-50.6-1.63,2.94-1,5.89-1,8.68V539.29c0,11.47-5.4,16.54-15.88,15.56-6.72-.66-11.3-3.93-12.29-11a70.77,70.77,0,0,1-.65-8.19V197c0-12.28,4.26-17.68,13.92-18.17,9-.5,14.74,4.91,14.9,14.41C1769.68,206.19,1769.68,219,1769.68,233.54ZM1877.11,427.6c29.48.5,54.54-6.38,75.17-24.23,31.61-27.35,41.11-63.05,36.85-103.34-9-86.14-91.05-114-154.6-88.43-38.81,15.72-59.11,46.84-64,87.94C1762,371.6,1809.15,428.26,1877.11,427.6Z" transform="translate(-0.1)"/><path class="b" d="M2363.17,325.74c-36.52,0-73,.17-109.56-.16-5.57,0-7.21.82-6.39,7,7.86,57.65,50,94.17,108.41,95,37.67.5,69.28-11.62,94-40.77,5.56-6.72,15.23-7.54,21.12-2.62s6.39,15.06.49,22.1a134.07,134.07,0,0,1-80.57,46c-37,6.55-73.2,3.44-106.45-15.06-42.25-23.42-63.54-60.6-67.14-108.25-2.62-35.87,3.27-70.09,25.22-99.08,31.93-42.25,76-58.14,128.06-53.71,37.18,3.27,69.11,17,93.51,46,20.8,24.73,30.14,53.88,29.81,86.14-.17,10.48-5.41,16.05-15.72,17.2a67.89,67.89,0,0,1-8.19.16Zm-6.39-26.36c33.74,0,67.64-.17,101.37.16,6.06,0,8-1,6.72-7.7-10.49-50.44-40.78-80.9-92.2-87.77-58.8-7.7-111.2,21.94-124.3,86.46-1.31,6.39-.49,9.17,7.2,9,33.58-.49,67.31-.16,101.21-.16Z" transform="translate(-0.1)"/><path class="b" d="M893.05,454.79c-31.28-.16-62.07-3.28-90.4-18.18a135.86,135.86,0,0,1-24.89-16.87,24.13,24.13,0,0,1-6.55-8.18c-3.44-6.88-2.13-14.91,2.78-18.67s14.25-3.61,19,1.14c32.26,31.77,72.39,36,114.47,33.57,21.29-1.31,41.76-5.56,58.47-20,24.89-21.29,18.83-60.11-11.3-72.06a117.35,117.35,0,0,0-26.86-6.72c-20-2.78-40.29-2.45-60.27-3.43s-40.12-3.61-59.11-11.3c-22.44-9.18-33.25-25.88-34.56-49.79-2-36,14.08-62.07,46.67-75,58.3-23.09,115-19.65,167.7,17.19a32.63,32.63,0,0,1,4.42,3.6c6.39,6.39,7,15.89,1.47,22.11-4.74,5.41-14.73,5.08-21.45-.49-40.45-33.41-85.48-35.7-133.14-19.65a93.26,93.26,0,0,0-18.18,9c-16.7,10-24.4,38-15.39,55,3.11,5.73,8,9.5,14.08,12,20,8.51,41.11,9.66,62.56,10.48,24.57.82,49.13,1.14,73,7.37,21.29,5.57,40.45,14.41,49.29,36.35,9.66,24.08,8.35,62.4-18.83,86.31-22.27,19.65-48.47,24.56-76.31,26C904,455.12,898.46,454.79,893.05,454.79Z" transform="translate(-0.1)"/><path class="a" d="M1129.69,309.53V434.65c0,12.77-7.7,19.48-18.34,16.7a12.54,12.54,0,0,1-9.83-10.64,78.08,78.08,0,0,1-.81-12.29q0-121.59.16-243c0-6.23-1.8-8.85-7.7-11.14a59.34,59.34,0,0,1-36.85-66.49c5.74-28.66,30.79-49.13,59.45-48.8a59.47,59.47,0,0,1,58.14,49c5.07,29-10.16,56.66-37.67,66.65-5.4,2-6.88,4.26-6.88,9.82C1129.86,226.17,1129.69,267.77,1129.69,309.53Z" transform="translate(-0.1)"/><path class="b" d="M2133.73,252.7V434.32c0,6.22-.49,12.12-6.71,15.56-9.83,5.24-20.31-.33-21.62-11.47a97.63,97.63,0,0,1-.33-9.82V71.09c.5-11.3,5.41-17.2,14.42-17,9.49.16,14.08,5.73,14.08,17Q2133.81,162,2133.73,252.7Z" transform="translate(-0.1)"/><path class="c" d="M346.2,243c5.6-1.3,10.3-2.3,14.9-3.4,1.5-.4,2.3-.1,2.3,1.5v15.7C357.4,251.9,352.3,247.9,346.2,243Z" transform="translate(-0.1)"/><path class="c" d="M531.2,388.6c.6.5,1.1,1.1.4,1.9a11,11,0,0,1-1.4-.9Z" transform="translate(-0.1)"/><path class="c" d="M530.3,219.2c.4-.3.9-.6,1.3-.9.6.8.2,1.3-.4,1.9C530.9,219.9,530.6,219.5,530.3,219.2Z" transform="translate(-0.1)"/><path class="c" d="M179.4,500.3a8.75,8.75,0,0,1-1.6.2c-.2-.8.6-.7,1-.9C179,499.8,179.2,500.1,179.4,500.3Z" transform="translate(-0.1)"/><path class="c" d="M167.1,122.8l-.7.1v-.4l.7.4Z" transform="translate(-0.1)"/><path class="c" d="M178.9,109c-.4-.1-1-.1-.6-.7.1-.1.8.1,1.2.2C179.2,108.7,179.1,108.9,178.9,109Z" transform="translate(-0.1)"/><path class="c" d="M398.5,71.4c-.1-.4-.4-1.1-.2-1.2.5-.4.8.1,1,.5Z" transform="translate(-0.1)"/><path class="c" d="M64.2,336.6l-.7.5-.2-.4.9.1Z" transform="translate(-0.1)"/><path class="c" d="M64,271l-.2.7-.4-.1.6-.6Z" transform="translate(-0.1)"/><path class="c" d="M167,484.9l-.2.7-.4-.2.6-.5Z" transform="translate(-0.1)"/><path class="c" d="M286,238l-.3.6c-.1,0-.3-.1-.4-.1l.7-.5Z" transform="translate(-0.1)"/><path class="c" d="M345.9,69.9l.8-.2-.1.4-.7-.3Z" transform="translate(-0.1)"/><path class="c" d="M399.1,538c-.1.4-.3.9-.8.5-.1-.1.1-.7.2-1.1Z" transform="translate(-0.1)"/></svg>